%TF.GenerationSoftware,KiCad,Pcbnew,7.0.8-7.0.8~ubuntu22.04.1*%
%TF.CreationDate,2023-10-11T13:02:26-03:00*%
%TF.ProjectId,combinador,636f6d62-696e-4616-946f-722e6b696361,rev?*%
%TF.SameCoordinates,Original*%
%TF.FileFunction,Copper,L2,Bot*%
%TF.FilePolarity,Positive*%
%FSLAX46Y46*%
G04 Gerber Fmt 4.6, Leading zero omitted, Abs format (unit mm)*
G04 Created by KiCad (PCBNEW 7.0.8-7.0.8~ubuntu22.04.1) date 2023-10-11 13:02:26*
%MOMM*%
%LPD*%
G01*
G04 APERTURE LIST*
%TA.AperFunction,SMDPad,CuDef*%
%ADD10R,4.750000X1.000000*%
%TD*%
%TA.AperFunction,SMDPad,CuDef*%
%ADD11R,1.000000X4.750000*%
%TD*%
%TA.AperFunction,ViaPad*%
%ADD12C,1.300000*%
%TD*%
G04 APERTURE END LIST*
D10*
%TO.P,J6,2,Ext*%
%TO.N,GND*%
X207380000Y-95160000D03*
X207380000Y-86840000D03*
%TD*%
D11*
%TO.P,J3,2,Ext*%
%TO.N,GND*%
X150815000Y-110000000D03*
X159135000Y-110000000D03*
%TD*%
%TO.P,J2,2,Ext*%
%TO.N,GND*%
X122640000Y-110000000D03*
X130960000Y-110000000D03*
%TD*%
%TO.P,J5,2,Ext*%
%TO.N,GND*%
X194120000Y-110000000D03*
X202440000Y-110000000D03*
%TD*%
D10*
%TO.P,J1,2,Ext*%
%TO.N,GND*%
X72350000Y-86840000D03*
X72350000Y-95160000D03*
%TD*%
D11*
%TO.P,J4,2,Ext*%
%TO.N,GND*%
X172965000Y-110000000D03*
X181285000Y-110000000D03*
%TD*%
D12*
%TO.N,GND*%
X186150000Y-105575000D03*
X79200000Y-97400000D03*
X164000000Y-105675000D03*
X85000000Y-97275000D03*
X135800000Y-105675000D03*
X99200000Y-105475000D03*
%TD*%
%TA.AperFunction,Conductor*%
%TO.N,GND*%
G36*
X209786338Y-77484396D02*
G01*
X209815237Y-77495838D01*
X209840384Y-77514108D01*
X209860197Y-77538057D01*
X209873431Y-77566182D01*
X209879255Y-77596714D01*
X209879500Y-77604500D01*
X209879500Y-112355500D01*
X209875604Y-112386338D01*
X209864162Y-112415237D01*
X209845892Y-112440384D01*
X209821943Y-112460197D01*
X209793818Y-112473431D01*
X209763286Y-112479255D01*
X209755500Y-112479500D01*
X70004500Y-112479500D01*
X69973662Y-112475604D01*
X69944763Y-112464162D01*
X69919616Y-112445892D01*
X69899803Y-112421943D01*
X69886569Y-112393818D01*
X69880745Y-112363286D01*
X69880500Y-112355500D01*
X69880500Y-77604500D01*
X69884396Y-77573662D01*
X69895838Y-77544763D01*
X69914108Y-77519616D01*
X69938057Y-77499803D01*
X69966182Y-77486569D01*
X69996714Y-77480745D01*
X70004500Y-77480500D01*
X209755500Y-77480500D01*
X209786338Y-77484396D01*
G37*
%TD.AperFunction*%
%TD*%
M02*
